<svg width="204" height="51" viewBox="0 0 204 51" fill="none" xmlns="http://www.w3.org/2000/svg">
<path d="M112.379 16.6804C112.403 16.0885 112.23 15.6316 111.861 15.3097C111.496 14.9877 110.944 14.8267 110.206 14.8267C109.704 14.8267 109.268 14.8977 108.899 15.0398C108.53 15.1771 108.234 15.3688 108.011 15.6151C107.793 15.8565 107.658 16.1359 107.606 16.4531C107.554 16.7135 107.571 16.9408 107.656 17.1349C107.746 17.3291 107.886 17.4972 108.075 17.6392C108.269 17.7765 108.499 17.8973 108.764 18.0014C109.029 18.1009 109.311 18.1861 109.609 18.2571L110.859 18.5696C111.47 18.7116 112.019 18.901 112.507 19.1378C112.999 19.3745 113.411 19.6657 113.743 20.0114C114.079 20.357 114.316 20.7642 114.453 21.233C114.59 21.7017 114.609 22.2391 114.51 22.8452C114.358 23.7353 114.005 24.5071 113.451 25.1605C112.897 25.8092 112.171 26.3134 111.271 26.6733C110.371 27.0284 109.33 27.206 108.146 27.206C106.972 27.206 105.98 27.026 105.17 26.6662C104.361 26.3063 103.771 25.7737 103.402 25.0682C103.037 24.358 102.928 23.4796 103.075 22.4332H106.051C105.999 22.9209 106.07 23.3281 106.264 23.6548C106.463 23.9768 106.759 24.2206 107.152 24.3864C107.545 24.5473 108.006 24.6278 108.537 24.6278C109.062 24.6278 109.529 24.5521 109.936 24.4006C110.348 24.2491 110.682 24.0384 110.937 23.7685C111.193 23.4986 111.349 23.1884 111.406 22.8381C111.463 22.5114 111.413 22.2367 111.257 22.0142C111.101 21.7917 110.85 21.6023 110.504 21.446C110.163 21.285 109.739 21.143 109.233 21.0199L107.713 20.6222C106.539 20.3239 105.651 19.8575 105.049 19.223C104.448 18.5885 104.233 17.7339 104.403 16.6591C104.555 15.7784 104.922 15.009 105.504 14.3509C106.091 13.688 106.83 13.1742 107.72 12.8097C108.615 12.4403 109.593 12.2557 110.653 12.2557C111.733 12.2557 112.644 12.4427 113.388 12.8168C114.131 13.1861 114.673 13.7022 115.014 14.3651C115.355 15.0279 115.459 15.7997 115.326 16.6804H112.379ZM123.602 22.3551L124.646 16.0909H127.672L125.854 27H122.949L123.276 25.0185H123.162C122.826 25.6577 122.336 26.1714 121.692 26.5597C121.048 26.9479 120.316 27.142 119.497 27.142C118.768 27.142 118.153 26.9763 117.651 26.6449C117.153 26.3134 116.801 25.8423 116.592 25.2315C116.384 24.6207 116.349 23.8892 116.486 23.0369L117.651 16.0909H120.676L119.611 22.4972C119.511 23.1411 119.601 23.6501 119.881 24.0241C120.16 24.3982 120.586 24.5852 121.159 24.5852C121.524 24.5852 121.877 24.5024 122.217 24.3366C122.563 24.1662 122.861 23.9152 123.112 23.5838C123.363 23.2524 123.527 22.8428 123.602 22.3551ZM132.365 20.6932L131.314 27H128.295L130.113 16.0909H132.99L132.677 18.0156H132.798C133.144 17.3764 133.631 16.8722 134.261 16.5028C134.896 16.1335 135.618 15.9489 136.427 15.9489C137.185 15.9489 137.817 16.1146 138.324 16.446C138.835 16.7775 139.195 17.2486 139.403 17.8594C139.616 18.4702 139.652 19.2017 139.51 20.054L138.345 27H135.319L136.392 20.5938C136.501 19.9261 136.415 19.4053 136.136 19.0312C135.861 18.6525 135.419 18.4631 134.808 18.4631C134.401 18.4631 134.027 18.5507 133.686 18.7259C133.345 18.901 133.058 19.1567 132.826 19.4929C132.599 19.8243 132.445 20.2244 132.365 20.6932ZM151.078 19.2017L148.329 19.3722C148.315 19.1307 148.248 18.9152 148.13 18.7259C148.016 18.5317 147.848 18.3778 147.626 18.2642C147.408 18.1506 147.133 18.0938 146.802 18.0938C146.305 18.0938 145.862 18.2074 145.474 18.4347C145.086 18.6619 144.865 18.9531 144.813 19.3082C144.771 19.5355 144.83 19.7273 144.991 19.8835C145.152 20.0398 145.476 20.1723 145.964 20.2812L147.881 20.679C148.904 20.8968 149.643 21.259 150.097 21.7656C150.557 22.2723 150.72 22.9351 150.587 23.7543C150.469 24.4503 150.164 25.0587 149.671 25.5795C149.179 26.0956 148.554 26.4981 147.796 26.7869C147.039 27.071 146.198 27.2131 145.275 27.2131C143.793 27.2131 142.666 26.91 141.894 26.304C141.122 25.6979 140.751 24.8764 140.779 23.8395L143.734 23.6832C143.757 24.1283 143.914 24.4645 144.203 24.6918C144.491 24.9143 144.887 25.0279 145.389 25.0327C145.952 25.0421 146.43 24.9261 146.823 24.6847C147.221 24.4384 147.446 24.1402 147.498 23.7898C147.536 23.5436 147.465 23.3447 147.285 23.1932C147.11 23.0417 146.788 22.9162 146.319 22.8168L144.501 22.4403C143.469 22.2273 142.728 21.8461 142.278 21.2969C141.828 20.7476 141.674 20.0492 141.816 19.2017C141.93 18.5246 142.211 17.9446 142.661 17.4616C143.116 16.974 143.701 16.5999 144.416 16.3395C145.135 16.0791 145.947 15.9489 146.852 15.9489C148.267 15.9489 149.333 16.2401 150.048 16.8224C150.767 17.4048 151.111 18.1979 151.078 19.2017ZM156.037 20.6932L154.986 27H151.967L154.382 12.4545H157.315L156.406 18.0156H156.527C156.877 17.3717 157.358 16.8674 157.968 16.5028C158.579 16.1335 159.301 15.9489 160.135 15.9489C160.892 15.9489 161.524 16.1146 162.031 16.446C162.542 16.7727 162.905 17.2438 163.118 17.8594C163.331 18.4702 163.366 19.2017 163.224 20.054L162.059 27H159.041L160.106 20.5938C160.215 19.9214 160.128 19.3982 159.843 19.0241C159.564 18.6501 159.119 18.4631 158.508 18.4631C158.096 18.4631 157.718 18.5507 157.372 18.7259C157.026 18.901 156.735 19.1567 156.498 19.4929C156.266 19.8243 156.112 20.2244 156.037 20.6932ZM164.426 27L166.244 16.0909H169.27L167.452 27H164.426ZM168.07 14.6705C167.62 14.6705 167.248 14.5213 166.955 14.223C166.666 13.92 166.547 13.5601 166.6 13.1435C166.652 12.7173 166.855 12.3575 167.21 12.0639C167.565 11.7656 167.968 11.6165 168.418 11.6165C168.868 11.6165 169.234 11.7656 169.519 12.0639C169.803 12.3575 169.921 12.7173 169.874 13.1435C169.826 13.5601 169.625 13.92 169.27 14.223C168.92 14.5213 168.52 14.6705 168.07 14.6705ZM173.966 20.6932L172.915 27H169.897L171.715 16.0909H174.591L174.279 18.0156H174.4C174.745 17.3764 175.233 16.8722 175.863 16.5028C176.497 16.1335 177.219 15.9489 178.029 15.9489C178.786 15.9489 179.419 16.1146 179.925 16.446C180.437 16.7775 180.796 17.2486 181.005 17.8594C181.218 18.4702 181.253 19.2017 181.111 20.054L179.946 27H176.921L177.993 20.5938C178.102 19.9261 178.017 19.4053 177.738 19.0312C177.463 18.6525 177.02 18.4631 176.41 18.4631C176.002 18.4631 175.628 18.5507 175.287 18.7259C174.946 18.901 174.66 19.1567 174.428 19.4929C174.201 19.8243 174.047 20.2244 173.966 20.6932ZM187.26 27.2131C186.143 27.2131 185.217 26.9858 184.483 26.5312C183.749 26.072 183.233 25.4233 182.935 24.5852C182.641 23.7424 182.591 22.7457 182.786 21.5952C182.975 20.473 183.356 19.4882 183.929 18.6406C184.507 17.7931 185.231 17.1326 186.102 16.6591C186.974 16.1856 187.944 15.9489 189.014 15.9489C189.734 15.9489 190.385 16.0649 190.967 16.2969C191.555 16.5241 192.042 16.8698 192.43 17.3338C192.819 17.7931 193.084 18.3684 193.226 19.0597C193.373 19.7509 193.37 20.5606 193.219 21.4886L193.084 22.3196H183.879L184.171 20.4446H190.534C190.605 20.009 190.577 19.6231 190.449 19.2869C190.321 18.9508 190.108 18.688 189.81 18.4986C189.511 18.3045 189.145 18.2074 188.709 18.2074C188.264 18.2074 187.847 18.3163 187.459 18.5341C187.071 18.7519 186.744 19.0384 186.479 19.3935C186.218 19.7438 186.05 20.125 185.975 20.5369L185.641 22.3977C185.546 22.9706 185.565 23.4465 185.698 23.8253C185.835 24.2041 186.072 24.4882 186.408 24.6776C186.744 24.8622 187.17 24.9545 187.686 24.9545C188.022 24.9545 188.337 24.9072 188.631 24.8125C188.929 24.7178 189.194 24.5781 189.426 24.3935C189.658 24.2041 189.848 23.9697 189.994 23.6903L192.757 23.875C192.502 24.5473 192.113 25.1345 191.592 25.6364C191.072 26.1335 190.444 26.5218 189.71 26.8011C188.981 27.0758 188.164 27.2131 187.26 27.2131ZM157.481 31.7273L156.274 39H154.736L155.944 31.7273H157.481ZM159.556 35.8466L159.03 39H157.521L158.43 33.5455H159.868L159.712 34.5078H159.773C159.945 34.1882 160.189 33.9361 160.504 33.7514C160.821 33.5668 161.182 33.4744 161.587 33.4744C161.966 33.4744 162.282 33.5573 162.535 33.723C162.791 33.8887 162.971 34.1243 163.075 34.4297C163.182 34.7351 163.199 35.1009 163.128 35.527L162.546 39H161.033L161.569 35.7969C161.624 35.4631 161.581 35.2027 161.442 35.0156C161.304 34.8262 161.083 34.7315 160.778 34.7315C160.574 34.7315 160.387 34.7753 160.216 34.8629C160.046 34.9505 159.903 35.0784 159.787 35.2464C159.673 35.4122 159.596 35.6122 159.556 35.8466ZM163.731 39L164.64 33.5455H166.153L165.244 39H163.731ZM165.553 32.8352C165.328 32.8352 165.142 32.7607 164.995 32.6115C164.851 32.46 164.792 32.2801 164.818 32.0717C164.844 31.8587 164.946 31.6787 165.123 31.532C165.301 31.3828 165.502 31.3082 165.727 31.3082C165.952 31.3082 166.135 31.3828 166.277 31.532C166.419 31.6787 166.479 31.8587 166.455 32.0717C166.431 32.2801 166.331 32.46 166.153 32.6115C165.978 32.7607 165.778 32.8352 165.553 32.8352ZM170.266 33.5455L170.078 34.6818H166.79L166.981 33.5455H170.266ZM167.94 32.2386H169.453L168.608 37.3239C168.584 37.4635 168.588 37.5724 168.618 37.6506C168.649 37.7263 168.7 37.7796 168.771 37.8104C168.845 37.8411 168.932 37.8565 169.034 37.8565C169.105 37.8565 169.177 37.8506 169.251 37.8388C169.324 37.8246 169.38 37.8139 169.417 37.8068L169.474 38.9325C169.389 38.9586 169.274 38.987 169.13 39.0178C168.988 39.0485 168.82 39.0675 168.626 39.0746C168.256 39.0888 167.944 39.0402 167.688 38.929C167.432 38.8153 167.249 38.6413 167.138 38.407C167.026 38.1726 167.003 37.8778 167.067 37.5227L167.94 32.2386ZM170.343 39L171.252 33.5455H172.764L171.855 39H170.343ZM172.164 32.8352C171.939 32.8352 171.753 32.7607 171.607 32.6115C171.462 32.46 171.403 32.2801 171.429 32.0717C171.455 31.8587 171.557 31.6787 171.735 31.532C171.912 31.3828 172.113 31.3082 172.338 31.3082C172.563 31.3082 172.747 31.3828 172.889 31.532C173.031 31.6787 173.09 31.8587 173.066 32.0717C173.043 32.2801 172.942 32.46 172.764 32.6115C172.589 32.7607 172.389 32.8352 172.164 32.8352ZM174.608 39.103C174.263 39.103 173.963 39.0426 173.71 38.9219C173.459 38.7988 173.274 38.6165 173.156 38.375C173.038 38.1335 173.008 37.834 173.067 37.4766C173.119 37.1735 173.217 36.9202 173.362 36.7166C173.509 36.5107 173.687 36.3449 173.898 36.2195C174.109 36.094 174.342 35.9981 174.598 35.9318C174.856 35.8655 175.122 35.8205 175.397 35.7969C175.714 35.7637 175.972 35.7318 176.171 35.701C176.372 35.6702 176.522 35.6264 176.622 35.5696C176.721 35.5104 176.782 35.4228 176.803 35.3068V35.2855C176.838 35.063 176.797 34.8902 176.679 34.767C176.563 34.6416 176.377 34.5788 176.121 34.5788C175.851 34.5788 175.622 34.638 175.432 34.7564C175.245 34.8748 175.111 35.0251 175.031 35.2074L173.653 35.0938C173.776 34.7623 173.962 34.4759 174.211 34.2344C174.462 33.9905 174.763 33.8035 175.116 33.6733C175.469 33.5407 175.864 33.4744 176.302 33.4744C176.605 33.4744 176.888 33.5099 177.151 33.581C177.416 33.652 177.645 33.7621 177.836 33.9112C178.03 34.0604 178.17 34.2521 178.255 34.4865C178.343 34.7185 178.361 34.9967 178.309 35.321L177.694 39H176.26L176.387 38.2436H176.345C176.229 38.4141 176.087 38.5644 175.919 38.6946C175.751 38.8224 175.558 38.9231 175.34 38.9964C175.122 39.0675 174.878 39.103 174.608 39.103ZM175.216 38.0589C175.436 38.0589 175.638 38.0152 175.823 37.9276C176.01 37.8376 176.164 37.7169 176.284 37.5653C176.408 37.4138 176.486 37.2422 176.519 37.0504L176.611 36.4716C176.564 36.5024 176.495 36.5296 176.405 36.5533C176.318 36.5769 176.222 36.5994 176.118 36.6207C176.016 36.6397 175.913 36.6574 175.809 36.674C175.704 36.6882 175.611 36.7024 175.528 36.7166C175.346 36.7427 175.182 36.7841 175.038 36.8409C174.894 36.8977 174.776 36.9747 174.686 37.0717C174.596 37.1664 174.541 37.2848 174.52 37.4268C174.486 37.6328 174.535 37.7902 174.665 37.8991C174.798 38.0057 174.981 38.0589 175.216 38.0589ZM182.678 33.5455L182.49 34.6818H179.202L179.393 33.5455H182.678ZM180.352 32.2386H181.865L181.02 37.3239C180.996 37.4635 181 37.5724 181.031 37.6506C181.061 37.7263 181.112 37.7796 181.183 37.8104C181.257 37.8411 181.344 37.8565 181.446 37.8565C181.517 37.8565 181.589 37.8506 181.663 37.8388C181.736 37.8246 181.792 37.8139 181.83 37.8068L181.886 38.9325C181.801 38.9586 181.686 38.987 181.542 39.0178C181.4 39.0485 181.232 39.0675 181.038 39.0746C180.668 39.0888 180.356 39.0402 180.1 38.929C179.844 38.8153 179.661 38.6413 179.55 38.407C179.438 38.1726 179.415 37.8778 179.479 37.5227L180.352 32.2386ZM182.755 39L183.664 33.5455H185.176L184.267 39H182.755ZM184.576 32.8352C184.351 32.8352 184.166 32.7607 184.019 32.6115C183.874 32.46 183.815 32.2801 183.841 32.0717C183.867 31.8587 183.969 31.6787 184.147 31.532C184.324 31.3828 184.525 31.3082 184.75 31.3082C184.975 31.3082 185.159 31.3828 185.301 31.532C185.443 31.6787 185.502 31.8587 185.478 32.0717C185.455 32.2801 185.354 32.46 185.176 32.6115C185.001 32.7607 184.801 32.8352 184.576 32.8352ZM191.474 33.5455L188.657 39H186.953L185.955 33.5455H187.496L187.979 37.4482H188.036L189.815 33.5455H191.474ZM193.634 39.1065C193.076 39.1065 192.613 38.9929 192.246 38.7656C191.879 38.536 191.621 38.2116 191.472 37.7926C191.325 37.3712 191.3 36.8729 191.397 36.2976C191.492 35.7365 191.682 35.2441 191.969 34.8203C192.258 34.3965 192.62 34.0663 193.056 33.8295C193.491 33.5928 193.977 33.4744 194.512 33.4744C194.871 33.4744 195.197 33.5324 195.488 33.6484C195.782 33.7621 196.026 33.9349 196.22 34.1669C196.414 34.3965 196.546 34.6842 196.617 35.0298C196.691 35.3755 196.69 35.7803 196.614 36.2443L196.546 36.6598H191.944L192.09 35.7223H195.271C195.307 35.5045 195.293 35.3116 195.229 35.1435C195.165 34.9754 195.058 34.844 194.909 34.7493C194.76 34.6522 194.577 34.6037 194.359 34.6037C194.136 34.6037 193.928 34.6581 193.734 34.767C193.54 34.8759 193.376 35.0192 193.244 35.1967C193.114 35.3719 193.03 35.5625 192.992 35.7685L192.825 36.6989C192.777 36.9853 192.787 37.2232 192.853 37.4126C192.922 37.602 193.04 37.7441 193.208 37.8388C193.376 37.9311 193.589 37.9773 193.847 37.9773C194.016 37.9773 194.173 37.9536 194.32 37.9062C194.469 37.8589 194.602 37.7891 194.718 37.6967C194.834 37.602 194.928 37.4848 195.002 37.3452L196.383 37.4375C196.255 37.7737 196.061 38.0672 195.801 38.3182C195.54 38.5668 195.227 38.7609 194.86 38.9006C194.495 39.0379 194.087 39.1065 193.634 39.1065Z" fill="white"/>
<rect width="30.3934" height="29.3672" transform="matrix(0.717177 -0.696891 0.70452 0.709684 20.8234 25.4725)" fill="#8B531F"/>
<path d="M0 26.0426L37 0L14.7149 26.0426L37 51L0 26.0426Z" fill="white"/>
<path d="M82.7914 24.2051L48.67 49.9293L69.0853 24.3907L48 0.466829L82.7914 24.2051Z" fill="white"/>
</svg>
